[h264 @ 0x55dc11557b40] Reinit context to 1920x1088, pix_fmt: yuv420p
Input #0, mov,mp4,m4a,3gp,3g2,mj2, from '/var/www/html/project/media/video/original/Il_mio_filmato_12.mov':
  Metadata:
    major_brand     : qt  
    minor_version   : 0
    compatible_brands: qt  
    creation_time   : 2025-12-04T16:20:24.000000Z
    com.apple.quicktime.artwork: ˙Ř˙ŕ
    com.apple.quicktime.is-montage: iMovie
  Duration: 00:01:11.17, start: 0.000000, bitrate: 15272 kb/s
    Stream #0:0(und): Video: h264 (High), 1 reference frame (avc1 / 0x31637661), yuv420p(tv, bt709, left), 1920x1080 (1920x1088), 15008 kb/s, 30 fps, 30 tbr, 600 tbn, 1200 tbc (default)
    Metadata:
      creation_time   : 2025-12-04T16:20:24.000000Z
      handler_name    : Core Media Video
      encoder         : H.264
    Stream #0:1(und): Audio: aac (LC) (mp4a / 0x6134706D), 44100 Hz, stereo, fltp, 250 kb/s (default)
    Metadata:
      creation_time   : 2025-12-04T16:20:24.000000Z
      handler_name    : Core Media Audio
Input #1, png_pipe, from '/var/www/html/project/static/images/templates/logo.png':
  Duration: N/A, bitrate: N/A
    Stream #1:0: Video: png, 1 reference frame, rgba(pc), 1920x1080 [SAR 2835:2835 DAR 16:9], 25 tbr, 25 tbn, 25 tbc
[h264 @ 0x55dc1157d940] Reinit context to 1280x720, pix_fmt: yuv420p
Input #2, mov,mp4,m4a,3gp,3g2,mj2, from '/var/www/html/project/static/images/templates/Codino.mp4':
  Metadata:
    major_brand     : mp42
    minor_version   : 1
    compatible_brands: isommp41mp42
    creation_time   : 2021-07-11T07:02:58.000000Z
  Duration: 00:00:02.00, start: 0.000000, bitrate: 1007 kb/s
    Stream #2:0(ita): Audio: aac (LC) (mp4a / 0x6134706D), 44100 Hz, stereo, fltp, 102 kb/s (default)
    Metadata:
      creation_time   : 2021-07-11T07:02:58.000000Z
      handler_name    : Core Media Audio
    Stream #2:1(und): Video: h264 (High), 1 reference frame (avc1 / 0x31637661), yuv420p(tv, bt709, progressive, left), 1280x720 [SAR 1:1 DAR 16:9], 813 kb/s, 25 fps, 25 tbr, 25k tbn, 50k tbc (default)
    Metadata:
      creation_time   : 2021-07-11T07:02:58.000000Z
      handler_name    : Core Media Video
[Parsed_scale_0 @ 0x55dc115af6c0] w:1280 h:720 flags:'bilinear' interl:0
[Parsed_scale_2 @ 0x55dc11577d40] w:1280 h:720 flags:'bilinear' interl:0
[Parsed_scale_4 @ 0x55dc115790c0] w:1280 h:720 flags:'bilinear' interl:0
Stream mapping:
  Stream #0:0 (h264) -> scale
  Stream #0:1 (aac) -> concat:in0:a0
  Stream #1:0 (png) -> scale
  Stream #2:0 (aac) -> concat:in1:a0
  Stream #2:1 (h264) -> scale
  concat:out:v0 -> Stream #0:0 (libx264)
  concat:out:a0 -> Stream #0:1 (aac)
Press [q] to stop, [?] for help
[h264 @ 0x55dc115b5540] Reinit context to 1920x1088, pix_fmt: yuv420p
[h264 @ 0x55dc11994c40] Reinit context to 1280x720, pix_fmt: yuv420p
[Parsed_scale_0 @ 0x55dc12fc0380] w:1280 h:720 flags:'bilinear' interl:0
[Parsed_scale_2 @ 0x55dc12fc82c0] w:1280 h:720 flags:'bilinear' interl:0
[Parsed_scale_4 @ 0x55dc12fc9f80] w:1280 h:720 flags:'bilinear' interl:0
[graph 0 input from stream 0:0 @ 0x55dc12fce780] w:1920 h:1080 pixfmt:yuv420p tb:1/600 fr:30/1 sar:0/1 sws_param:flags=2
[graph 0 input from stream 1:0 @ 0x55dc12fcf800] w:1920 h:1080 pixfmt:rgba tb:1/25 fr:25/1 sar:2835/2835 sws_param:flags=2
[graph 0 input from stream 2:1 @ 0x55dc12fd0880] w:1280 h:720 pixfmt:yuv420p tb:1/25000 fr:25/1 sar:1/1 sws_param:flags=2
[graph_0_in_0_1 @ 0x55dc12fd1800] tb:1/44100 samplefmt:fltp samplerate:44100 chlayout:0x3
[graph_0_in_2_0 @ 0x55dc12fd2940] tb:1/44100 samplefmt:fltp samplerate:44100 chlayout:0x3
[Parsed_scale_0 @ 0x55dc12fc0380] w:1920 h:1080 fmt:yuv420p sar:0/1 -> w:1280 h:720 fmt:yuv420p sar:0/1 flags:0x2
[Parsed_setsar_1 @ 0x55dc12fc85c0] w:1280 h:720 sar:0/1 dar:16/9 -> sar:1/1 dar:16/9
[Parsed_scale_2 @ 0x55dc12fc82c0] w:1920 h:1080 fmt:rgba sar:2835/2835 -> w:1280 h:720 fmt:yuva420p sar:1/1 flags:0x2
[Parsed_setsar_3 @ 0x55dc12fc9180] w:1280 h:720 sar:1/1 dar:16/9 -> sar:1/1 dar:16/9
[Parsed_overlay_6 @ 0x55dc12fcb6c0] main w:1280 h:720 fmt:yuv420p overlay w:1280 h:720 fmt:yuva420p
[Parsed_overlay_6 @ 0x55dc12fcb6c0] [framesync @ 0x55dc12fcb828] Selected 1/600 time base
[Parsed_overlay_6 @ 0x55dc12fcb6c0] [framesync @ 0x55dc12fcb828] Sync level 2
[Parsed_scale_4 @ 0x55dc12fc9f80] w:1280 h:720 fmt:yuv420p sar:1/1 -> w:1280 h:720 fmt:yuv420p sar:1/1 flags:0x2
[Parsed_setsar_5 @ 0x55dc12fcaac0] w:1280 h:720 sar:1/1 dar:16/9 -> sar:1/1 dar:16/9
[libx264 @ 0x55dc11578b80] using SAR=1/1
[libx264 @ 0x55dc11578b80] using cpu capabilities: MMX2 SSE2Fast SSSE3 SSE4.2 AVX FMA3 BMI2 AVX2
[libx264 @ 0x55dc11578b80] profile High, level 3.1
[libx264 @ 0x55dc11578b80] 264 - core 155 r2917 0a84d98 - H.264/MPEG-4 AVC codec - Copyleft 2003-2018 - http://www.videolan.org/x264.html - options: cabac=1 ref=1 deblock=1:0:0 analyse=0x3:0x113 me=hex subme=2 psy=1 psy_rd=1.00:0.00 mixed_ref=0 me_range=16 chroma_me=1 trellis=0 8x8dct=1 cqm=0 deadzone=21,11 fast_pskip=1 chroma_qp_offset=0 threads=22 lookahead_threads=5 sliced_threads=0 nr=0 decimate=1 interlaced=0 bluray_compat=0 constrained_intra=0 bframes=3 b_pyramid=2 b_adapt=1 b_bias=0 direct=1 weightb=1 open_gop=0 weightp=1 keyint=250 keyint_min=25 scenecut=40 intra_refresh=0 rc_lookahead=10 rc=crf mbtree=1 crf=18.0 qcomp=0.60 qpmin=0 qpmax=69 qpstep=4 ip_ratio=1.40 aq=1:1.00
Output #0, mp4, to '/var/www/html/project/media/video/watermarks/Il_mio_filmato_12.mp4':
  Metadata:
    major_brand     : qt  
    minor_version   : 0
    compatible_brands: qt  
    com.apple.quicktime.is-montage: iMovie
    com.apple.quicktime.artwork: ˙Ř˙ŕ
    encoder         : Lavf58.29.100
    Stream #0:0: Video: h264 (libx264), 1 reference frame (avc1 / 0x31637661), yuv420p(progressive), 1280x720 [SAR 1:1 DAR 16:9], q=-1--1, 30 fps, 15360 tbn, 30 tbc (default)
    Metadata:
      encoder         : Lavc58.54.100 libx264
    Side data:
      cpb: bitrate max/min/avg: 0/0/0 buffer size: 0 vbv_delay: -1
    Stream #0:1: Audio: aac (LC) (mp4a / 0x6134706D), 44100 Hz, stereo, fltp, delay 1024, 128 kb/s (default)
    Metadata:
      encoder         : Lavc58.54.100 aac
[Parsed_overlay_6 @ 0x55dc12fcb6c0] [framesync @ 0x55dc12fcb828] Sync level 0
[Parsed_concat_7 @ 0x55dc12fcc800] EOF on in0:v0, 1 streams left in segment.
[Parsed_concat_7 @ 0x55dc12fcc800] EOF on in0:a0, 0 streams left in segment.
[Parsed_concat_7 @ 0x55dc12fcc800] Segment finished at pts=71167710
[Parsed_concat_7 @ 0x55dc12fcc800] EOF on in1:a0, 1 streams left in segment.
[Parsed_concat_7 @ 0x55dc12fcc800] EOF on in1:v0, 0 streams left in segment.
[Parsed_concat_7 @ 0x55dc12fcc800] Segment finished at pts=73186395
No more output streams to write to, finishing.
frame= 2185 fps=153 q=-1.0 Lsize=   41277kB time=00:01:13.18 bitrate=4620.1kbits/s speed=5.13x    
[AVIOContext @ 0x55dc11555ec0] Statistics: 0 seeks, 29 writeouts
video:40058kB audio:1140kB subtitle:0kB other streams:0kB global headers:0kB muxing overhead: 0.190590%
Input file #0 (/var/www/html/project/media/video/original/Il_mio_filmato_12.mov):
  Input stream #0:0 (video): 2135 packets read (133514302 bytes); 2135 frames decoded; 
  Input stream #0:1 (audio): 3067 packets read (2233929 bytes); 3065 frames decoded (3138496 samples); 
  Total: 5202 packets (135748231 bytes) demuxed
Input file #1 (/var/www/html/project/static/images/templates/logo.png):
  Input stream #1:0 (video): 1 packets read (111578 bytes); 1 frames decoded; 
  Total: 1 packets (111578 bytes) demuxed
Input file #2 (/var/www/html/project/static/images/templates/Codino.mp4):
  Input stream #2:0 (audio): 89 packets read (26579 bytes); 87 frames decoded (89024 samples); 
  Input stream #2:1 (video): 50 packets read (203365 bytes); 50 frames decoded; 
  Total: 139 packets (229944 bytes) demuxed
Output file #0 (/var/www/html/project/media/video/watermarks/Il_mio_filmato_12.mp4):
  Output stream #0:0 (video): 2185 frames encoded; 2185 packets muxed (41019564 bytes); 
  Output stream #0:1 (audio): 3152 frames encoded (3227520 samples); 3153 packets muxed (1167765 bytes); 
  Total: 5338 packets (42187329 bytes) muxed
[AVIOContext @ 0x55dc115f7300] Statistics: 2 seeks, 164 writeouts
[libx264 @ 0x55dc11578b80] frame I:13    Avg QP:16.79  size:194789
[libx264 @ 0x55dc11578b80] frame P:586   Avg QP:19.55  size: 46606
[libx264 @ 0x55dc11578b80] frame B:1586  Avg QP:23.81  size:  7046
[libx264 @ 0x55dc11578b80] consecutive B-frames:  2.6%  1.3%  2.1% 94.1%
[libx264 @ 0x55dc11578b80] mb I  I16..4: 11.1%  4.6% 84.4%
[libx264 @ 0x55dc11578b80] mb P  I16..4:  3.7%  1.0%  1.7%  P16..4: 48.7% 16.2% 14.7%  0.0%  0.0%    skip:14.1%
[libx264 @ 0x55dc11578b80] mb B  I16..4:  0.2%  0.1%  0.0%  B16..8: 12.8%  5.9%  1.8%  direct:10.9%  skip:68.2%  L0:26.8% L1:37.5% BI:35.7%
[libx264 @ 0x55dc11578b80] 8x8 transform intra:13.3% inter:29.3%
[libx264 @ 0x55dc11578b80] coded y,uvDC,uvAC intra: 50.4% 50.2% 29.3% inter: 20.3% 11.3% 1.2%
[libx264 @ 0x55dc11578b80] i16 v,h,dc,p: 79% 10%  9%  2%
[libx264 @ 0x55dc11578b80] i8 v,h,dc,ddl,ddr,vr,hd,vl,hu: 34% 21% 21%  4%  4%  3%  4%  5%  5%
[libx264 @ 0x55dc11578b80] i4 v,h,dc,ddl,ddr,vr,hd,vl,hu: 24% 23% 11%  5%  7%  6%  8%  6%  9%
[libx264 @ 0x55dc11578b80] i8c dc,h,v,p: 57% 16% 22%  4%
[libx264 @ 0x55dc11578b80] Weighted P-Frames: Y:2.2% UV:0.0%
[libx264 @ 0x55dc11578b80] kb/s:4484.98
[aac @ 0x55dc115c8000] Qavg: 780.265
[AVIOContext @ 0x55dc1155ee40] Statistics: 216708168 bytes read, 4264 seeks
[AVIOContext @ 0x55dc115b1200] Statistics: 111578 bytes read, 0 seeks
[AVIOContext @ 0x55dc115dce00] Statistics: 1530915 bytes read, 42 seeks
